<svg xmlns="http://www.w3.org/2000/svg" version="1.1" width="24" height="24" viewBox="0 0 256 256" preserveAspectRatio="xMidYMid meet">
    <g fill="rgb(237,123,82)" transform="translate(1.4065934065934016 1.4065934065934016) scale(2.81 2.81)">
        <path d="M45 90C20.187 90 0 69.813 0 45S20.187 0 45 0C69.813 0 90 20.187 90 45S69.813 90 45 90zm0-82C24.047 7 7 24.047 7 45s17.047 38 38 38 38-17.047 38-38S65.953 7 45 7z" strokeLinecap="round"/>
        <circle cx="30.85" cy="33.68" r="7"/>
        <circle cx="59.15" cy="33.68" r="7"/>
        <path d="M61.691 65.942c-0.778 0-1.563-0.259-2.212-0.789c-4.136-3.379-9.143-5.165-14.479-5.165s-10.344 1.786-14.479 5.164c-1.496 1.224-3.702 1.002-4.925-0.495s-1.001-3.702 0.496-4.925c5.322-4.35 12.038-6.744 18.908-6.744s13.585 2.395 18.907 6.743c1.497 1.224 1.72 3.429 0.497 4.925C63.712 65.504 62.706 65.942 61.691 65.942z" strokeLinecap="round"/>
    </g>
</svg>